<svg width="3200" height="1600" viewBox="0 0 3200 1600" fill="none" xmlns="http://www.w3.org/2000/svg">
  <g id="wayang" transform="scale(4) translate(200, 80)">
    <path d="M200 10 C180 20, 170 50, 200 60 C230 50, 220 20, 200 10" fill="#C19977" stroke="#000" stroke-width="2"/>
    <circle cx="200" cy="15" r="10" fill="#C19977" stroke="#000" stroke-width="2"/>
    <path d="M200 60 C210 70, 220 90, 200 120 C180 90, 190 70, 200 60" fill="#C19977" stroke="#000" stroke-width="2"/>
    <path d="M200 120 C210 130, 215 150, 200 160 C185 150, 190 130, 200 120" fill="#C19977" stroke="#000" stroke-width="2"/>
    <line x1="200" y1="120" x2="180" y2="180" stroke="#000" stroke-width="2"/>
    <line x1="200" y1="120" x2="220" y2="180" stroke="#000" stroke-width="2"/>
    <line x1="180" y1="180" x2="185" y2="185" stroke="#000" stroke-width="2"/>
    <line x1="220" y1="180" x2="215" y2="185" stroke="#000" stroke-width="2"/>
    <line x1="185" y1="185" x2="175" y2="190" stroke="#000" stroke-width="2"/>
    <line x1="215" y1="185" x2="225" y2="190" stroke="#000" stroke-width="2"/>
  </g>
  <text x="1600" y="800" fill="white" font-family="Times New Roman" font-size="224" font-weight="bold">Wayang lovers</text>
</svg>
